<svg width="800" height="400" viewBox="0 0 800 400" xmlns="http://www.w3.org/2000/svg">
  <defs>
    <linearGradient id="bgGradient2" x1="0%" y1="0%" x2="100%" y2="100%">
      <stop offset="0%" style="stop-color:#22c55e;stop-opacity:1" />
      <stop offset="100%" style="stop-color:#16a34a;stop-opacity:1" />
    </linearGradient>
    <linearGradient id="roofGrad" x1="0%" y1="0%" x2="100%" y2="100%">
      <stop offset="0%" style="stop-color:#f59e0b;stop-opacity:1" />
      <stop offset="100%" style="stop-color:#d97706;stop-opacity:1" />
    </linearGradient>
    <linearGradient id="stallGrad" x1="0%" y1="0%" x2="100%" y2="100%">
      <stop offset="0%" style="stop-color:#f8fafc;stop-opacity:1" />
      <stop offset="100%" style="stop-color:#e2e8f0;stop-opacity:1" />
    </linearGradient>
    <linearGradient id="tentGrad" x1="0%" y1="0%" x2="100%" y2="100%">
      <stop offset="0%" style="stop-color:#fbbf24;stop-opacity:1" />
      <stop offset="100%" style="stop-color:#f59e0b;stop-opacity:1" />
    </linearGradient>
  </defs>

  <!-- Background -->
  <rect width="800" height="400" fill="url(#bgGradient2)"/>

  <!-- Market Roof Structure -->
  <polygon points="50,200 750,200 700,150 100,150" fill="url(#roofGrad)"/>
  <polygon points="100,150 700,150 650,120 150,120" fill="#fbbf24"/>

  <!-- Support Pillars -->
  <rect x="140" y="200" width="8" height="180" fill="#92400e"/>
  <rect x="240" y="200" width="8" height="180" fill="#92400e"/>
  <rect x="340" y="200" width="8" height="180" fill="#92400e"/>
  <rect x="440" y="200" width="8" height="180" fill="#92400e"/>
  <rect x="540" y="200" width="8" height="180" fill="#92400e"/>
  <rect x="640" y="200" width="8" height="180" fill="#92400e"/>

  <!-- Market Stalls -->
  <g>
    <!-- Stall 1 - Fruits -->
    <rect x="80" y="240" width="80" height="60" fill="url(#stallGrad)" stroke="#16a34a" stroke-width="2"/>
    <circle cx="100" cy="260" r="6" fill="#ef4444"/> <!-- Apple -->
    <circle cx="115" cy="260" r="6" fill="#f59e0b"/> <!-- Orange -->
    <circle cx="130" cy="260" r="6" fill="#84cc16"/> <!-- Lime -->
    <circle cx="145" cy="260" r="6" fill="#8b5cf6"/> <!-- Grape -->
    <ellipse cx="120" cy="280" rx="20" ry="8" fill="#16a34a"/> <!-- Watermelon -->
    <text x="120" y="295" text-anchor="middle" fill="#16a34a" font-size="8" font-family="Arial, sans-serif">FRUTAS</text>

    <!-- Stall 2 - Vegetables -->
    <rect x="180" y="240" width="80" height="60" fill="url(#stallGrad)" stroke="#16a34a" stroke-width="2"/>
    <rect x="195" y="255" width="12" height="8" fill="#f59e0b" rx="2"/> <!-- Carrot -->
    <circle cx="220" cy="260" r="5" fill="#dc2626"/> <!-- Tomato -->
    <ellipse cx="240" cy="260" rx="8" ry="5" fill="#65a30d"/> <!-- Lettuce -->
    <rect x="200" y="275" width="40" height="5" fill="#16a34a" rx="2"/> <!-- Cucumber -->
    <text x="220" y="295" text-anchor="middle" fill="#16a34a" font-size="8" font-family="Arial, sans-serif">VERDURAS</text>

    <!-- Stall 3 - Meat -->
    <rect x="280" y="240" width="80" height="60" fill="url(#stallGrad)" stroke="#16a34a" stroke-width="2"/>
    <rect x="295" y="255" width="15" height="10" fill="#dc2626" rx="2"/>
    <rect x="315" y="255" width="15" height="10" fill="#dc2626" rx="2"/>
    <rect x="335" y="255" width="15" height="10" fill="#dc2626" rx="2"/>
    <rect x="305" y="270" width="20" height="8" fill="#b91c1c" rx="2"/>
    <text x="320" y="295" text-anchor="middle" fill="#16a34a" font-size="8" font-family="Arial, sans-serif">CARNES</text>

    <!-- Stall 4 - Fish -->
    <rect x="380" y="240" width="80" height="60" fill="url(#stallGrad)" stroke="#16a34a" stroke-width="2"/>
    <ellipse cx="405" cy="265" rx="12" ry="6" fill="#0ea5e9"/>
    <ellipse cx="430" cy="265" rx="12" ry="6" fill="#0ea5e9"/>
    <ellipse cx="445" cy="275" rx="8" ry="4" fill="#0ea5e9"/>
    <text x="420" y="295" text-anchor="middle" fill="#16a34a" font-size="8" font-family="Arial, sans-serif">PESCADO</text>

    <!-- Stall 5 - Flowers -->
    <rect x="480" y="240" width="80" height="60" fill="url(#stallGrad)" stroke="#16a34a" stroke-width="2"/>
    <circle cx="500" cy="260" r="4" fill="#ec4899"/>
    <circle cx="515" cy="260" r="4" fill="#f59e0b"/>
    <circle cx="530" cy="260" r="4" fill="#8b5cf6"/>
    <circle cx="545" cy="260" r="4" fill="#ef4444"/>
    <line x1="500" y1="264" x2="500" y2="280" stroke="#16a34a" stroke-width="2"/>
    <line x1="515" y1="264" x2="515" y2="280" stroke="#16a34a" stroke-width="2"/>
    <line x1="530" y1="264" x2="530" y2="280" stroke="#16a34a" stroke-width="2"/>
    <line x1="545" y1="264" x2="545" y2="280" stroke="#16a34a" stroke-width="2"/>
    <text x="520" y="295" text-anchor="middle" fill="#16a34a" font-size="8" font-family="Arial, sans-serif">FLORES</text>

    <!-- Stall 6 - Bread -->
    <rect x="580" y="240" width="80" height="60" fill="url(#stallGrad)" stroke="#16a34a" stroke-width="2"/>
    <ellipse cx="600" cy="265" rx="8" ry="4" fill="#f59e0b"/>
    <ellipse cx="620" cy="265" rx="8" ry="4" fill="#f59e0b"/>
    <ellipse cx="640" cy="265" rx="8" ry="4" fill="#f59e0b"/>
    <rect x="610" y="275" width="20" height="8" fill="#d97706" rx="2"/>
    <text x="620" y="295" text-anchor="middle" fill="#16a34a" font-size="8" font-family="Arial, sans-serif">PANADERÍA</text>
  </g>

  <!-- Vendors and Customers -->
  <g>
    <!-- Vendor 1 -->
    <circle cx="120" cy="320" r="12" fill="#fbbf24"/>
    <rect x="115" y="332" width="10" height="20" fill="#16a34a"/>

    <!-- Customer 1 -->
    <circle cx="200" cy="320" r="10" fill="#f59e0b"/>
    <rect x="196" y="330" width="8" height="18" fill="#1f2937"/>

    <!-- Vendor 2 -->
    <circle cx="320" cy="320" r="12" fill="#ec4899"/>
    <rect x="315" y="332" width="10" height="20" fill="#16a34a"/>

    <!-- Customer 2 -->
    <circle cx="420" cy="320" r="10" fill="#3b82f6"/>
    <rect x="416" y="330" width="8" height="18" fill="#1f2937"/>

    <!-- Vendor 3 -->
    <circle cx="520" cy="320" r="12" fill="#8b5cf6"/>
    <rect x="515" y="332" width="10" height="20" fill="#16a34a"/>
  </g>

  <!-- Shopping Bags/Baskets -->
  <g>
    <rect x="170" y="335" width="15" height="10" fill="#f59e0b" rx="2"/>
    <rect x="390" y="335" width="15" height="10" fill="#22c55e" rx="2"/>
  </g>

  <!-- Central Market Icon -->
  <g transform="translate(350, 60)">
    <rect x="0" y="0" width="100" height="80" fill="white" stroke="#16a34a" stroke-width="3" rx="8"/>
    <rect x="10" y="15" width="80" height="4" fill="#22c55e"/>
    <rect x="10" y="25" width="60" height="3" fill="#16a34a"/>
    <rect x="10" y="35" width="70" height="3" fill="#16a34a"/>

    <!-- Market stall icon -->
    <polygon points="20,45 45,45 40,55 25,55" fill="#f59e0b"/>
    <rect x="22" y="55" width="2" height="10" fill="#92400e"/>
    <rect x="40" y="55" width="2" height="10" fill="#92400e"/>
    <circle cx="30" cy="50" r="2" fill="#ef4444"/>
    <circle cx="35" cy="50" r="2" fill="#22c55e"/>

    <!-- Scale icon -->
    <rect x="55" y="60" width="20" height="2" fill="#16a34a"/>
    <circle cx="60" cy="55" r="3" fill="#f59e0b"/>
    <circle cx="70" cy="55" r="3" fill="#f59e0b"/>
    <line x1="65" y1="50" x2="65" y2="58" stroke="#16a34a" stroke-width="2"/>
  </g>

  <!-- Title -->
  <text x="400" y="40" text-anchor="middle" fill="white" font-size="32" font-weight="bold" font-family="Arial, sans-serif">
    Mercados Municipales
  </text>

  <!-- Subtitle -->
  <text x="400" y="365" text-anchor="middle" fill="white" font-size="18" font-family="Arial, sans-serif" opacity="0.9">
    Administración y control de espacios comerciales en mercados públicos
  </text>

  <!-- Decorative elements -->
  <circle cx="100" cy="80" r="3" fill="white" opacity="0.6"/>
  <circle cx="700" cy="100" r="4" fill="white" opacity="0.5"/>
  <circle cx="150" cy="60" r="2" fill="white" opacity="0.7"/>
  <circle cx="650" cy="70" r="3" fill="white" opacity="0.6"/>
  <circle cx="50" cy="120" r="2" fill="white" opacity="0.5"/>
  <circle cx="750" cy="140" r="3" fill="white" opacity="0.4"/>
</svg>