<svg width="800" height="400" viewBox="0 0 800 400" xmlns="http://www.w3.org/2000/svg">
  <defs>
    <linearGradient id="bgGradient4" x1="0%" y1="0%" x2="100%" y2="100%">
      <stop offset="0%" style="stop-color:#cc9f52;stop-opacity:1" />
      <stop offset="50%" style="stop-color:#ea8215;stop-opacity:1" />
      <stop offset="100%" style="stop-color:#cc9f52;stop-opacity:1" />
    </linearGradient>
    <radialGradient id="magnifyGrad" cx="50%" cy="50%" r="50%">
      <stop offset="0%" style="stop-color:#ffffff;stop-opacity:0.9" />
      <stop offset="100%" style="stop-color:#f1f5f9;stop-opacity:0.7" />
    </radialGradient>
  </defs>

  <!-- Background -->
  <rect width="800" height="400" fill="url(#bgGradient4)"/>

  <!-- File cabinets/Database visualization -->
  <g transform="translate(50, 150)">
    <!-- File cabinet -->
    <rect x="0" y="0" width="80" height="180" fill="#475569" rx="5"/>
    <rect x="5" y="10" width="70" height="35" fill="#64748b" stroke="#ea8215" stroke-width="2" rx="2"/>
    <rect x="5" y="50" width="70" height="35" fill="#64748b" stroke="#ea8215" stroke-width="2" rx="2"/>
    <rect x="5" y="90" width="70" height="35" fill="#64748b" stroke="#ea8215" stroke-width="2" rx="2"/>
    <rect x="5" y="130" width="70" height="35" fill="#64748b" stroke="#ea8215" stroke-width="2" rx="2"/>

    <!-- Drawer handles -->
    <circle cx="65" cy="27" r="3" fill="#ea8215"/>
    <circle cx="65" cy="67" r="3" fill="#ea8215"/>
    <circle cx="65" cy="107" r="3" fill="#ea8215"/>
    <circle cx="65" cy="147" r="3" fill="#ea8215"/>

    <!-- Folder tabs -->
    <rect x="10" y="15" width="12" height="8" fill="#ea8215" rx="1"/>
    <rect x="25" y="15" width="12" height="8" fill="#cc9f52" rx="1"/>
    <rect x="40" y="15" width="12" height="8" fill="#ea8215" rx="1"/>
  </g>

  <!-- Search interface -->
  <g transform="translate(300, 100)">
    <!-- Monitor/Screen -->
    <rect x="0" y="0" width="200" height="150" fill="#1e293b" rx="8"/>
    <rect x="10" y="10" width="180" height="120" fill="#334155" rx="5"/>

    <!-- Search bar -->
    <rect x="20" y="25" width="140" height="20" fill="white" stroke="#ea8215" stroke-width="2" rx="10"/>
    <text x="30" y="37" fill="#64748b" font-size="10" font-family="Arial, sans-serif">Buscar licencia...</text>

    <!-- Search button -->
    <rect x="165" y="27" width="16" height="16" fill="#ea8215" rx="2"/>
    <text x="173" y="37" text-anchor="middle" fill="white" font-size="8">🔍</text>

    <!-- Search results -->
    <rect x="20" y="60" width="160" height="15" fill="#f8fafc" stroke="#ea8215" stroke-width="1" rx="2"/>
    <rect x="25" y="63" width="8" height="8" fill="#10b981" rx="1"/>
    <text x="38" y="70" fill="#1e293b" font-size="6" font-family="Arial, sans-serif">Licencia COM-2024-001</text>

    <rect x="20" y="80" width="160" height="15" fill="#f8fafc" stroke="#cc9f52" stroke-width="1" rx="2"/>
    <rect x="25" y="83" width="8" height="8" fill="#f59e0b" rx="1"/>
    <text x="38" y="90" fill="#1e293b" font-size="6" font-family="Arial, sans-serif">Licencia COM-2024-002</text>

    <rect x="20" y="100" width="160" height="15" fill="#f8fafc" stroke="#ea8215" stroke-width="1" rx="2"/>
    <rect x="25" y="103" width="8" height="8" fill="#ef4444" rx="1"/>
    <text x="38" y="110" fill="#1e293b" font-size="6" font-family="Arial, sans-serif">Licencia COM-2024-003</text>

    <!-- Monitor stand -->
    <rect x="85" y="150" width="30" height="20" fill="#475569" rx="2"/>
    <rect x="70" y="170" width="60" height="8" fill="#64748b" rx="4"/>
  </g>

  <!-- Magnifying glass -->
  <g transform="translate(600, 180)">
    <circle cx="30" cy="30" r="25" fill="url(#magnifyGrad)" stroke="#ea8215" stroke-width="4"/>
    <rect x="50" y="50" width="6" height="40" fill="#ea8215" rx="3" transform="rotate(45 53 55)"/>

    <!-- Document being magnified -->
    <rect x="15" y="18" width="30" height="24" fill="white" stroke="#cc9f52" stroke-width="1" rx="2"/>
    <rect x="18" y="22" width="24" height="2" fill="#ea8215"/>
    <rect x="18" y="26" width="18" height="1.5" fill="#cc9f52"/>
    <rect x="18" y="30" width="20" height="1.5" fill="#cc9f52"/>
    <rect x="18" y="34" width="15" height="1.5" fill="#cc9f52"/>
  </g>

  <!-- Data flow visualization -->
  <g transform="translate(150, 80)">
    <!-- Data nodes -->
    <circle cx="0" cy="0" r="6" fill="white" opacity="0.9"/>
    <circle cx="50" cy="20" r="5" fill="white" opacity="0.8"/>
    <circle cx="100" cy="10" r="4" fill="white" opacity="0.7"/>
    <circle cx="150" cy="30" r="6" fill="white" opacity="0.9"/>

    <!-- Connecting lines -->
    <line x1="0" y1="0" x2="50" y2="20" stroke="white" stroke-width="2" opacity="0.6"/>
    <line x1="50" y1="20" x2="100" y2="10" stroke="white" stroke-width="2" opacity="0.6"/>
    <line x1="100" y1="10" x2="150" y2="30" stroke="white" stroke-width="2" opacity="0.6"/>
  </g>

  <!-- Title -->
  <text x="400" y="50" text-anchor="middle" fill="white" font-size="32" font-weight="bold" font-family="Arial, sans-serif">
    Consultas Administrativas
  </text>

  <!-- Subtitle -->
  <text x="400" y="370" text-anchor="middle" fill="white" font-size="18" font-family="Arial, sans-serif" opacity="0.9">
    Sistema de consultas y reportes especializados para gestión municipal
  </text>

  <!-- Decorative elements -->
  <rect x="100" y="120" width="3" height="3" fill="white" opacity="0.6" transform="rotate(45 101.5 121.5)"/>
  <rect x="700" y="140" width="4" height="4" fill="white" opacity="0.5" transform="rotate(45 702 142)"/>
  <circle cx="250" cy="320" r="2" fill="white" opacity="0.7"/>
  <circle cx="550" cy="330" r="3" fill="white" opacity="0.6"/>

  <!-- Status indicators -->
  <g transform="translate(650, 300)">
    <rect x="0" y="0" width="120" height="60" fill="rgba(255,255,255,0.1)" stroke="white" stroke-width="1" rx="5"/>
    <text x="60" y="15" text-anchor="middle" fill="white" font-size="8" font-weight="bold">ESTADO SISTEMA</text>
    <circle cx="20" cy="30" r="4" fill="#10b981"/>
    <text x="30" y="33" fill="white" font-size="6">Base de Datos</text>
    <circle cx="20" cy="45" r="4" fill="#10b981"/>
    <text x="30" y="48" fill="white" font-size="6">Consultas Activas</text>
  </g>
</svg>