<svg width="800" height="400" viewBox="0 0 800 400" xmlns="http://www.w3.org/2000/svg">
  <defs>
    <linearGradient id="bgGradient1" x1="0%" y1="0%" x2="100%" y2="100%">
      <stop offset="0%" style="stop-color:#ea8215;stop-opacity:1" />
      <stop offset="100%" style="stop-color:#cc9f52;stop-opacity:1" />
    </linearGradient>
    <linearGradient id="buildingGrad" x1="0%" y1="0%" x2="100%" y2="100%">
      <stop offset="0%" style="stop-color:#f8fafc;stop-opacity:1" />
      <stop offset="100%" style="stop-color:#e2e8f0;stop-opacity:1" />
    </linearGradient>
  </defs>

  <!-- Background -->
  <rect width="800" height="400" fill="url(#bgGradient1)"/>

  <!-- City silhouette -->
  <rect x="50" y="200" width="80" height="180" fill="url(#buildingGrad)" opacity="0.9"/>
  <rect x="150" y="150" width="70" height="230" fill="url(#buildingGrad)" opacity="0.9"/>
  <rect x="240" y="180" width="60" height="200" fill="url(#buildingGrad)" opacity="0.9"/>
  <rect x="320" y="120" width="90" height="260" fill="url(#buildingGrad)" opacity="0.9"/>
  <rect x="430" y="160" width="75" height="220" fill="url(#buildingGrad)" opacity="0.9"/>
  <rect x="525" y="140" width="65" height="240" fill="url(#buildingGrad)" opacity="0.9"/>
  <rect x="610" y="170" width="80" height="210" fill="url(#buildingGrad)" opacity="0.9"/>
  <rect x="710" y="190" width="70" height="190" fill="url(#buildingGrad)" opacity="0.9"/>

  <!-- Windows on buildings -->
  <g fill="#ea8215" opacity="0.7">
    <!-- Building 1 windows -->
    <rect x="60" y="220" width="8" height="10"/>
    <rect x="75" y="220" width="8" height="10"/>
    <rect x="105" y="220" width="8" height="10"/>
    <rect x="60" y="240" width="8" height="10"/>
    <rect x="75" y="240" width="8" height="10"/>
    <rect x="105" y="240" width="8" height="10"/>

    <!-- More windows for other buildings -->
    <rect x="160" y="170" width="8" height="10"/>
    <rect x="175" y="170" width="8" height="10"/>
    <rect x="190" y="170" width="8" height="10"/>
    <rect x="160" y="190" width="8" height="10"/>
    <rect x="175" y="190" width="8" height="10"/>
    <rect x="190" y="190" width="8" height="10"/>
  </g>

  <!-- Document/License icon in center -->
  <g transform="translate(350, 80)">
    <rect x="0" y="0" width="100" height="130" fill="white" stroke="#ea8215" stroke-width="3" rx="5"/>
    <rect x="10" y="15" width="80" height="4" fill="#ea8215"/>
    <rect x="10" y="25" width="60" height="3" fill="#cc9f52"/>
    <rect x="10" y="35" width="70" height="3" fill="#cc9f52"/>
    <rect x="10" y="45" width="50" height="3" fill="#cc9f52"/>

    <!-- Official seal -->
    <circle cx="50" cy="80" r="20" fill="none" stroke="#ea8215" stroke-width="2"/>
    <circle cx="50" cy="80" r="12" fill="#ea8215"/>
    <text x="50" y="85" text-anchor="middle" fill="white" font-size="8" font-weight="bold">★</text>
  </g>

  <!-- Title -->
  <text x="400" y="50" text-anchor="middle" fill="white" font-size="32" font-weight="bold" font-family="Arial, sans-serif">
    Licencias Comerciales
  </text>

  <!-- Subtitle -->
  <text x="400" y="250" text-anchor="middle" fill="white" font-size="18" font-family="Arial, sans-serif" opacity="0.9">
    Gestión integral de permisos y licencias para establecimientos comerciales
  </text>

  <!-- Decorative elements -->
  <circle cx="100" cy="80" r="3" fill="white" opacity="0.6"/>
  <circle cx="700" cy="100" r="4" fill="white" opacity="0.5"/>
  <circle cx="150" cy="60" r="2" fill="white" opacity="0.7"/>
  <circle cx="650" cy="70" r="3" fill="white" opacity="0.6"/>
</svg>