<svg width="800" height="400" viewBox="0 0 800 400" xmlns="http://www.w3.org/2000/svg">
  <defs>
    <linearGradient id="bgGradient3" x1="0%" y1="0%" x2="100%" y2="100%">
      <stop offset="0%" style="stop-color:#8b5cf6;stop-opacity:1" />
      <stop offset="100%" style="stop-color:#6d28d9;stop-opacity:1" />
    </linearGradient>
    <linearGradient id="docGrad" x1="0%" y1="0%" x2="100%" y2="100%">
      <stop offset="0%" style="stop-color:#f8fafc;stop-opacity:1" />
      <stop offset="100%" style="stop-color:#e2e8f0;stop-opacity:1" />
    </linearGradient>
    <linearGradient id="counterGrad" x1="0%" y1="0%" x2="100%" y2="100%">
      <stop offset="0%" style="stop-color:#7c3aed;stop-opacity:1" />
      <stop offset="100%" style="stop-color:#5b21b6;stop-opacity:1" />
    </linearGradient>
    <linearGradient id="windowGrad" x1="0%" y1="0%" x2="100%" y2="100%">
      <stop offset="0%" style="stop-color:#a855f7;stop-opacity:1" />
      <stop offset="100%" style="stop-color:#7c3aed;stop-opacity:1" />
    </linearGradient>
  </defs>

  <!-- Background -->
  <rect width="800" height="400" fill="url(#bgGradient3)"/>

  <!-- Office Building Backdrop -->
  <rect x="50" y="150" width="700" height="200" fill="url(#counterGrad)" opacity="0.3"/>

  <!-- Service Windows/Counters -->
  <g>
    <!-- Window 1 -->
    <rect x="100" y="250" width="120" height="80" fill="url(#windowGrad)" rx="5"/>
    <rect x="110" y="260" width="100" height="30" fill="white" rx="3"/>
    <text x="160" y="280" text-anchor="middle" fill="#6d28d9" font-size="12" font-weight="bold" font-family="Arial, sans-serif">VENTANILLA 1</text>
    <circle cx="160" cy="300" r="8" fill="#f8fafc"/>
    <rect x="155" y="295" width="10" height="15" fill="#8b5cf6"/>

    <!-- Window 2 -->
    <rect x="250" y="250" width="120" height="80" fill="url(#windowGrad)" rx="5"/>
    <rect x="260" y="260" width="100" height="30" fill="white" rx="3"/>
    <text x="310" y="280" text-anchor="middle" fill="#6d28d9" font-size="12" font-weight="bold" font-family="Arial, sans-serif">VENTANILLA 2</text>
    <circle cx="310" cy="300" r="8" fill="#f8fafc"/>
    <rect x="305" y="295" width="10" height="15" fill="#8b5cf6"/>

    <!-- Window 3 -->
    <rect x="400" y="250" width="120" height="80" fill="url(#windowGrad)" rx="5"/>
    <rect x="410" y="260" width="100" height="30" fill="white" rx="3"/>
    <text x="460" y="280" text-anchor="middle" fill="#6d28d9" font-size="12" font-weight="bold" font-family="Arial, sans-serif">VENTANILLA 3</text>
    <circle cx="460" cy="300" r="8" fill="#f8fafc"/>
    <rect x="455" y="295" width="10" height="15" fill="#8b5cf6"/>

    <!-- Window 4 -->
    <rect x="550" y="250" width="120" height="80" fill="url(#windowGrad)" rx="5"/>
    <rect x="560" y="260" width="100" height="30" fill="white" rx="3"/>
    <text x="610" y="280" text-anchor="middle" fill="#6d28d9" font-size="12" font-weight="bold" font-family="Arial, sans-serif">VENTANILLA 4</text>
    <circle cx="610" cy="300" r="8" fill="#f8fafc"/>
    <rect x="605" y="295" width="10" height="15" fill="#8b5cf6"/>
  </g>

  <!-- Floating Documents -->
  <g transform="translate(50, 180)">
    <!-- Document 1 -->
    <rect x="0" y="0" width="40" height="50" fill="url(#docGrad)" stroke="#7c3aed" stroke-width="2" rx="3" transform="rotate(-15)"/>
    <rect x="5" y="8" width="30" height="2" fill="#8b5cf6" transform="rotate(-15)"/>
    <rect x="5" y="15" width="25" height="2" fill="#a855f7" transform="rotate(-15)"/>
    <rect x="5" y="22" width="28" height="2" fill="#a855f7" transform="rotate(-15)"/>

    <!-- Document 2 -->
    <rect x="80" y="-10" width="40" height="50" fill="url(#docGrad)" stroke="#7c3aed" stroke-width="2" rx="3" transform="rotate(10)"/>
    <rect x="85" y="-2" width="30" height="2" fill="#8b5cf6" transform="rotate(10)"/>
    <rect x="85" y="5" width="25" height="2" fill="#a855f7" transform="rotate(10)"/>
    <rect x="85" y="12" width="28" height="2" fill="#a855f7" transform="rotate(10)"/>

    <!-- Document 3 -->
    <rect x="150" y="5" width="40" height="50" fill="url(#docGrad)" stroke="#7c3aed" stroke-width="2" rx="3" transform="rotate(-8)"/>
    <rect x="155" y="13" width="30" height="2" fill="#8b5cf6" transform="rotate(-8)"/>
    <rect x="155" y="20" width="25" height="2" fill="#a855f7" transform="rotate(-8)"/>
    <rect x="155" y="27" width="28" height="2" fill="#a855f7" transform="rotate(-8)"/>
  </g>

  <!-- Service Icons -->
  <g>
    <!-- Stamp Icon -->
    <g transform="translate(680, 180)">
      <rect x="0" y="0" width="30" height="30" fill="#7c3aed" rx="5"/>
      <rect x="5" y="5" width="20" height="20" fill="white" rx="3"/>
      <circle cx="15" cy="15" r="8" fill="#8b5cf6"/>
      <text x="15" y="19" text-anchor="middle" fill="white" font-size="8" font-weight="bold" font-family="Arial, sans-serif">★</text>
      <rect x="10" y="35" width="10" height="15" fill="#374151"/>
    </g>

    <!-- Multiple Service Icons -->
    <g transform="translate(620, 350)">
      <!-- Phone -->
      <rect x="0" y="0" width="15" height="20" fill="#a855f7" rx="3"/>
      <rect x="2" y="3" width="11" height="8" fill="white" rx="1"/>

      <!-- Email -->
      <rect x="25" y="5" width="20" height="15" fill="#7c3aed" rx="2"/>
      <polygon points="27,7 43,7 35,12" fill="white"/>

      <!-- Calendar -->
      <rect x="55" y="0" width="18" height="20" fill="#8b5cf6" rx="2"/>
      <rect x="57" y="7" width="14" height="10" fill="white" rx="1"/>
      <line x1="59" y1="10" x2="69" y2="10" stroke="#8b5cf6" stroke-width="1"/>
      <line x1="59" y1="13" x2="69" y2="13" stroke="#8b5cf6" stroke-width="1"/>
    </g>
  </g>

  <!-- People/Customers -->
  <g>
    <!-- Person 1 -->
    <circle cx="140" cy="350" r="10" fill="#fbbf24"/>
    <rect x="135" y="360" width="10" height="18" fill="#1f2937"/>

    <!-- Person 2 -->
    <circle cx="290" cy="350" r="10" fill="#ec4899"/>
    <rect x="285" y="360" width="10" height="18" fill="#374151"/>

    <!-- Person 3 -->
    <circle cx="440" cy="350" r="10" fill="#3b82f6"/>
    <rect x="435" y="360" width="10" height="18" fill="#1f2937"/>

    <!-- Person 4 -->
    <circle cx="590" cy="350" r="10" fill="#22c55e"/>
    <rect x="585" y="360" width="10" height="18" fill="#374151"/>
  </g>

  <!-- Central Services Icon -->
  <g transform="translate(350, 80)">
    <rect x="0" y="0" width="100" height="80" fill="white" stroke="#6d28d9" stroke-width="3" rx="8"/>
    <rect x="10" y="15" width="80" height="4" fill="#8b5cf6"/>
    <rect x="10" y="25" width="60" height="3" fill="#7c3aed"/>
    <rect x="10" y="35" width="70" height="3" fill="#7c3aed"/>

    <!-- Multiple documents icon -->
    <rect x="15" y="45" width="20" height="25" fill="#a855f7" rx="2"/>
    <rect x="20" y="50" width="20" height="25" fill="#8b5cf6" rx="2"/>
    <rect x="25" y="55" width="20" height="25" fill="#7c3aed" rx="2"/>

    <!-- Service symbols -->
    <circle cx="65" cy="55" r="8" fill="#6d28d9"/>
    <text x="65" y="59" text-anchor="middle" fill="white" font-size="8" font-weight="bold" font-family="Arial, sans-serif">★</text>
    <rect x="55" y="65" width="20" height="2" fill="#8b5cf6"/>
    <rect x="58" y="68" width="14" height="2" fill="#8b5cf6"/>
  </g>

  <!-- Queue Lines -->
  <g stroke="#c084fc" stroke-width="2" fill="none" stroke-dasharray="5,5">
    <path d="M 120,350 Q 140,330 160,310"/>
    <path d="M 270,350 Q 290,330 310,310"/>
    <path d="M 420,350 Q 440,330 460,310"/>
    <path d="M 570,350 Q 590,330 610,310"/>
  </g>

  <!-- Title -->
  <text x="400" y="50" text-anchor="middle" fill="white" font-size="32" font-weight="bold" font-family="Arial, sans-serif">
    Otras Obligaciones
  </text>

  <!-- Subtitle -->
  <text x="400" y="390" text-anchor="middle" fill="white" font-size="18" font-family="Arial, sans-serif" opacity="0.9">
    Servicios múltiples y trámites diversos de obligaciones municipales
  </text>

  <!-- Decorative elements -->
  <circle cx="100" cy="80" r="3" fill="white" opacity="0.6"/>
  <circle cx="700" cy="100" r="4" fill="white" opacity="0.5"/>
  <circle cx="150" cy="60" r="2" fill="white" opacity="0.7"/>
  <circle cx="650" cy="70" r="3" fill="white" opacity="0.6"/>
  <circle cx="50" cy="120" r="2" fill="white" opacity="0.5"/>
  <circle cx="750" cy="140" r="3" fill="white" opacity="0.4"/>
</svg>